<svg xmlns="http://www.w3.org/2000/svg" xmlns:xlink="http://www.w3.org/1999/xlink" width="500" zoomAndPan="magnify" viewBox="0 0 375 74.999997" height="100" preserveAspectRatio="xMidYMid meet" version="1.0"><defs><g/><clipPath id="7657a8a0d5"><path d="M 333.117188 10.863281 L 367.613281 10.863281 L 367.613281 44.613281 L 333.117188 44.613281 Z M 333.117188 10.863281 " clip-rule="nonzero"/></clipPath><clipPath id="8d652ad156"><path d="M 0.0390625 4 L 52 4 L 52 55 L 0.0390625 55 Z M 0.0390625 4 " clip-rule="nonzero"/></clipPath><clipPath id="d69582ba7f"><rect x="0" width="329" y="0" height="67"/></clipPath></defs><g clip-path="url(#7657a8a0d5)"><path fill="#000000" d="M 347.855469 26.96875 L 349.699219 26.96875 C 351.847656 26.96875 353.589844 26.253906 353.589844 24.507812 C 353.589844 22.96875 352.460938 21.945312 350.003906 21.945312 C 348.980469 21.945312 348.265625 22.046875 347.855469 22.148438 Z M 347.753906 36.40625 L 343.863281 36.40625 L 343.863281 19.585938 C 345.398438 19.378906 347.546875 19.070312 350.3125 19.070312 C 353.484375 19.070312 354.917969 19.585938 356.042969 20.40625 C 357.070312 21.121094 357.785156 22.355469 357.785156 23.996094 C 357.785156 26.046875 356.25 27.378906 354.304688 27.996094 L 354.304688 28.199219 C 355.941406 28.714844 356.761719 30.046875 357.273438 32.304688 C 357.785156 34.867188 358.195312 35.792969 358.5 36.40625 L 354.40625 36.40625 C 353.894531 35.792969 353.589844 34.355469 353.078125 32.304688 C 352.769531 30.558594 351.746094 29.738281 349.597656 29.738281 L 347.753906 29.738281 Z M 337.414062 27.6875 C 337.414062 35.175781 343.046875 41.125 350.515625 41.125 C 357.785156 41.230469 363.3125 35.175781 363.3125 27.789062 C 363.3125 20.300781 357.785156 14.25 350.3125 14.25 C 343.046875 14.25 337.414062 20.300781 337.414062 27.6875 Z M 367.613281 27.6875 C 367.613281 37.125 360.035156 44.613281 350.414062 44.613281 C 340.792969 44.613281 333.117188 37.125 333.117188 27.6875 C 333.117188 18.25 340.792969 10.863281 350.515625 10.863281 C 360.035156 10.863281 367.613281 18.25 367.613281 27.6875 " fill-opacity="1" fill-rule="nonzero"/></g><g transform="matrix(1, 0, 0, 1, 5, 8)"><g clip-path="url(#d69582ba7f)"><g clip-path="url(#8d652ad156)"><g fill="#000000" fill-opacity="1"><g transform="translate(2.500007, 54.507677)"><g><path d="M 28.890625 -49.765625 L 48.96875 0 L 36.796875 0 L 33.109375 -9.953125 L 14.171875 -9.953125 L 10.5 0 L -1.6875 0 L 18.390625 -49.765625 Z M 29.25 -19.90625 L 23.703125 -34.375 L 23.578125 -34.375 L 18.03125 -19.90625 Z M 29.25 -19.90625 "/></g></g></g></g><g fill="#000000" fill-opacity="1"><g transform="translate(49.78111, 54.507677)"><g><path d="M 3.625 0 L 3.625 -30.9375 L 14.296875 -30.9375 L 14.296875 -26.484375 L 14.421875 -26.484375 C 14.492188 -26.640625 14.617188 -26.835938 14.796875 -27.078125 C 14.984375 -27.316406 15.378906 -27.738281 15.984375 -28.34375 C 16.585938 -28.945312 17.226562 -29.488281 17.90625 -29.96875 C 18.59375 -30.457031 19.476562 -30.890625 20.5625 -31.265625 C 21.644531 -31.648438 22.753906 -31.84375 23.890625 -31.84375 C 25.054688 -31.84375 26.203125 -31.679688 27.328125 -31.359375 C 28.453125 -31.035156 29.273438 -30.710938 29.796875 -30.390625 L 30.640625 -29.921875 L 26.171875 -20.875 C 24.847656 -22 23 -22.5625 20.625 -22.5625 C 19.34375 -22.5625 18.238281 -22.28125 17.3125 -21.71875 C 16.382812 -21.15625 15.726562 -20.46875 15.34375 -19.65625 C 14.96875 -18.851562 14.695312 -18.171875 14.53125 -17.609375 C 14.375 -17.046875 14.296875 -16.601562 14.296875 -16.28125 L 14.296875 0 Z M 3.625 0 "/></g></g></g><g fill="#000000" fill-opacity="1"><g transform="translate(79.81425, 54.507677)"><g><path d="M 4.640625 -48.1875 C 5.890625 -49.4375 7.378906 -50.0625 9.109375 -50.0625 C 10.835938 -50.0625 12.320312 -49.4375 13.5625 -48.1875 C 14.8125 -46.9375 15.4375 -45.445312 15.4375 -43.71875 C 15.4375 -42 14.8125 -40.515625 13.5625 -39.265625 C 12.320312 -38.015625 10.835938 -37.390625 9.109375 -37.390625 C 7.378906 -37.390625 5.890625 -38.015625 4.640625 -39.265625 C 3.398438 -40.515625 2.78125 -42 2.78125 -43.71875 C 2.78125 -45.445312 3.398438 -46.9375 4.640625 -48.1875 Z M 3.625 -30.9375 L 3.625 0 L 14.296875 0 L 14.296875 -30.9375 Z M 3.625 -30.9375 "/></g></g></g><g fill="#000000" fill-opacity="1"><g transform="translate(98.027126, 54.507677)"><g><path d="M 34.921875 -14 L 12.484375 -14 C 12.484375 -11.820312 13.1875 -10.207031 14.59375 -9.15625 C 16 -8.113281 17.523438 -7.59375 19.171875 -7.59375 C 20.898438 -7.59375 22.265625 -7.820312 23.265625 -8.28125 C 24.273438 -8.75 25.425781 -9.664062 26.71875 -11.03125 L 34.4375 -7.171875 C 31.21875 -1.785156 25.867188 0.90625 18.390625 0.90625 C 13.734375 0.90625 9.734375 -0.691406 6.390625 -3.890625 C 3.054688 -7.085938 1.390625 -10.9375 1.390625 -15.4375 C 1.390625 -19.9375 3.054688 -23.796875 6.390625 -27.015625 C 9.734375 -30.234375 13.734375 -31.84375 18.390625 -31.84375 C 23.296875 -31.84375 27.285156 -30.425781 30.359375 -27.59375 C 33.441406 -24.757812 34.984375 -20.707031 34.984375 -15.4375 C 34.984375 -14.71875 34.960938 -14.238281 34.921875 -14 Z M 12.78125 -19.90625 L 24.546875 -19.90625 C 24.304688 -21.507812 23.671875 -22.742188 22.640625 -23.609375 C 21.617188 -24.472656 20.304688 -24.90625 18.703125 -24.90625 C 16.929688 -24.90625 15.519531 -24.441406 14.46875 -23.515625 C 13.425781 -22.597656 12.863281 -21.394531 12.78125 -19.90625 Z M 12.78125 -19.90625 "/></g></g></g><g fill="#000000" fill-opacity="1"><g transform="translate(134.271933, 54.507677)"><g><path d="M 3.625 0 L 3.625 -51.875 L 14.296875 -51.875 L 14.296875 0 Z M 3.625 0 "/></g></g></g><g fill="#000000" fill-opacity="1"><g transform="translate(152.183263, 54.507677)"><g/></g></g><g fill="#000000" fill-opacity="1"><g transform="translate(166.717299, 54.507677)"><g><path d="M 30.09375 -10.25 C 31.820312 -10.25 33.5 -10.507812 35.125 -11.03125 C 36.757812 -11.5625 37.957031 -12.066406 38.71875 -12.546875 L 39.859375 -13.328125 L 44.6875 -3.671875 C 44.53125 -3.554688 44.3125 -3.394531 44.03125 -3.1875 C 43.75 -2.988281 43.09375 -2.617188 42.0625 -2.078125 C 41.039062 -1.535156 39.945312 -1.0625 38.78125 -0.65625 C 37.613281 -0.257812 36.082031 0.0976562 34.1875 0.421875 C 32.300781 0.742188 30.351562 0.90625 28.34375 0.90625 C 23.71875 0.90625 19.332031 -0.226562 15.1875 -2.5 C 11.050781 -4.769531 7.71875 -7.894531 5.1875 -11.875 C 2.65625 -15.863281 1.390625 -20.164062 1.390625 -24.78125 C 1.390625 -28.28125 2.128906 -31.640625 3.609375 -34.859375 C 5.097656 -38.078125 7.078125 -40.832031 9.546875 -43.125 C 12.023438 -45.414062 14.910156 -47.242188 18.203125 -48.609375 C 21.503906 -49.972656 24.882812 -50.65625 28.34375 -50.65625 C 31.5625 -50.65625 34.523438 -50.273438 37.234375 -49.515625 C 39.953125 -48.753906 41.875 -47.988281 43 -47.21875 L 44.6875 -46.078125 L 39.859375 -36.421875 C 39.578125 -36.671875 39.15625 -36.960938 38.59375 -37.296875 C 38.03125 -37.640625 36.90625 -38.09375 35.21875 -38.65625 C 33.53125 -39.21875 31.820312 -39.5 30.09375 -39.5 C 27.363281 -39.5 24.910156 -39.054688 22.734375 -38.171875 C 20.566406 -37.285156 18.847656 -36.117188 17.578125 -34.671875 C 16.316406 -33.234375 15.351562 -31.675781 14.6875 -30 C 14.019531 -28.332031 13.6875 -26.632812 13.6875 -24.90625 C 13.6875 -21.125 15.101562 -17.734375 17.9375 -14.734375 C 20.769531 -11.742188 24.820312 -10.25 30.09375 -10.25 Z M 30.09375 -10.25 "/></g></g></g><g fill="#000000" fill-opacity="1"><g transform="translate(212.128854, 54.507677)"><g><path d="M 3.625 0 L 3.625 -51.875 L 14.296875 -51.875 L 14.296875 -27.6875 L 14.421875 -27.6875 C 17.191406 -30.457031 20.144531 -31.84375 23.28125 -31.84375 C 24.8125 -31.84375 26.328125 -31.640625 27.828125 -31.234375 C 29.335938 -30.835938 30.785156 -30.21875 32.171875 -29.375 C 33.554688 -28.53125 34.679688 -27.332031 35.546875 -25.78125 C 36.410156 -24.238281 36.84375 -22.441406 36.84375 -20.390625 L 36.84375 0 L 26.171875 0 L 26.171875 -17.484375 C 26.171875 -19.097656 25.65625 -20.503906 24.625 -21.703125 C 23.601562 -22.910156 22.269531 -23.515625 20.625 -23.515625 C 19.019531 -23.515625 17.5625 -22.890625 16.25 -21.640625 C 14.945312 -20.398438 14.296875 -19.015625 14.296875 -17.484375 L 14.296875 0 Z M 3.625 0 "/></g></g></g><g fill="#000000" fill-opacity="1"><g transform="translate(251.992123, 54.507677)"><g><path d="M 34.921875 -14 L 12.484375 -14 C 12.484375 -11.820312 13.1875 -10.207031 14.59375 -9.15625 C 16 -8.113281 17.523438 -7.59375 19.171875 -7.59375 C 20.898438 -7.59375 22.265625 -7.820312 23.265625 -8.28125 C 24.273438 -8.75 25.425781 -9.664062 26.71875 -11.03125 L 34.4375 -7.171875 C 31.21875 -1.785156 25.867188 0.90625 18.390625 0.90625 C 13.734375 0.90625 9.734375 -0.691406 6.390625 -3.890625 C 3.054688 -7.085938 1.390625 -10.9375 1.390625 -15.4375 C 1.390625 -19.9375 3.054688 -23.796875 6.390625 -27.015625 C 9.734375 -30.234375 13.734375 -31.84375 18.390625 -31.84375 C 23.296875 -31.84375 27.285156 -30.425781 30.359375 -27.59375 C 33.441406 -24.757812 34.984375 -20.707031 34.984375 -15.4375 C 34.984375 -14.71875 34.960938 -14.238281 34.921875 -14 Z M 12.78125 -19.90625 L 24.546875 -19.90625 C 24.304688 -21.507812 23.671875 -22.742188 22.640625 -23.609375 C 21.617188 -24.472656 20.304688 -24.90625 18.703125 -24.90625 C 16.929688 -24.90625 15.519531 -24.441406 14.46875 -23.515625 C 13.425781 -22.597656 12.863281 -21.394531 12.78125 -19.90625 Z M 12.78125 -19.90625 "/></g></g></g><g fill="#000000" fill-opacity="1"><g transform="translate(288.23693, 54.507677)"><g><path d="M 3.625 0 L 3.625 -30.9375 L 14.296875 -30.9375 L 14.296875 -27.6875 L 14.421875 -27.6875 C 17.191406 -30.457031 20.144531 -31.84375 23.28125 -31.84375 C 24.8125 -31.84375 26.328125 -31.640625 27.828125 -31.234375 C 29.335938 -30.835938 30.785156 -30.21875 32.171875 -29.375 C 33.554688 -28.53125 34.679688 -27.332031 35.546875 -25.78125 C 36.410156 -24.238281 36.84375 -22.441406 36.84375 -20.390625 L 36.84375 0 L 26.171875 0 L 26.171875 -17.484375 C 26.171875 -19.097656 25.65625 -20.503906 24.625 -21.703125 C 23.601562 -22.910156 22.269531 -23.515625 20.625 -23.515625 C 19.019531 -23.515625 17.5625 -22.890625 16.25 -21.640625 C 14.945312 -20.398438 14.296875 -19.015625 14.296875 -17.484375 L 14.296875 0 Z M 3.625 0 "/></g></g></g></g></g></svg>